<?xml version="1.0" encoding="utf-8"?>
<!-- Generator: Adobe Illustrator 21.0.0, SVG Export Plug-In . SVG Version: 6.00 Build 0)  -->
<svg version="1.1" id="Слой_1" xmlns="http://www.w3.org/2000/svg" xmlns:xlink="http://www.w3.org/1999/xlink" x="0px" y="0px"
	 viewBox="0 0 530.2 280.8" style="enable-background:new 0 0 530.2 280.8;" xml:space="preserve">
<path id="_02." style="fill:#C0D2CC;" d="M109.2,54.4c39.6,0,49.2,51.6,49.2,86.8c0,36-11.2,85.2-49.2,85.2
	c-38.8,0-49.2-48.4-49.2-86C60,106,70.4,54.4,109.2,54.4z M109.2,280.8c78.4,0,109.2-83.2,109.2-140C218.4,91.6,192.4,0,109.2,0
	S0,91.6,0,140.8C0,197.6,30.8,280.8,109.2,280.8L109.2,280.8z M422.8,276v-54.4h-82.4l28.8-36c23.6-29.6,49.2-56,49.2-97.2
	C418.4,35.6,382.8,0,330,0c-58.4,0-88.8,44.8-90,97.2h56.4c1.2-28.4,14.4-40.4,34-40.4c18,0,30.8,12,30.8,31.6
	c0,18.4-16.8,36.4-27.6,50L226,276H422.8L422.8,276z M459.8,245.2c0.1,19.3,15.7,34.9,35,34.8c0.1,0,0.1,0,0.2,0
	c19.2,0,35.2-15.6,35.2-34.8c0-19.4-15.8-35.2-35.2-35.2C475.5,210,459.8,225.8,459.8,245.2L459.8,245.2L459.8,245.2z"/>
</svg>
