<?xml version="1.0" encoding="utf-8"?>
<!-- Generator: Adobe Illustrator 21.0.0, SVG Export Plug-In . SVG Version: 6.00 Build 0)  -->
<svg version="1.1" id="Слой_1" xmlns="http://www.w3.org/2000/svg" xmlns:xlink="http://www.w3.org/1999/xlink" x="0px" y="0px"
	 viewBox="0 0 539.2 280.8" style="enable-background:new 0 0 539.2 280.8;" xml:space="preserve">
<path id="_03." style="fill:#C0D2CC;" d="M109.2,54.4c39.6,0,49.2,51.6,49.2,86.8c0,36-11.2,85.2-49.2,85.2
	c-38.8,0-49.2-48.4-49.2-86C60,106,70.4,54.4,109.2,54.4z M109.2,280.8c78.4,0,109.2-83.2,109.2-140C218.4,91.6,192.4,0,109.2,0
	S0,91.6,0,140.8C0,197.6,30.8,280.8,109.2,280.8L109.2,280.8z M238,196c2.8,62.4,48.8,84,100,84c52.8,0,95.6-32.8,95.6-89.6
	c0-25.6-10.4-50.4-36.8-62.8c15.2-10.8,24.8-32.4,24.8-49.2c0-54.8-40.4-78.4-89.2-78.4c-46.8,0-86.4,28.8-89.6,81.6h60.4
	c1.6-18.8,11.2-28.8,30.8-28.8c16,0,28.4,9.6,28.4,25.6c0,17.2-7.6,30.4-26,30.4h-24.8v46.4h24.8c22.4,0,37.6,11.2,37.6,35.2
	c0,19.6-15.2,35.6-35.2,35.6c-21.6,0-36-7.6-40.4-30H238z M468.8,245.2c0.1,19.3,15.7,34.9,35,34.8c0.1,0,0.1,0,0.2,0
	c19.2,0,35.2-15.6,35.2-34.8c0-19.4-15.8-35.2-35.2-35.2C484.5,210,468.8,225.8,468.8,245.2L468.8,245.2L468.8,245.2z"/>
</svg>
