<?xml version="1.0" encoding="utf-8"?>
<!-- Generator: Adobe Illustrator 21.0.0, SVG Export Plug-In . SVG Version: 6.00 Build 0)  -->
<svg version="1.1" id="Слой_1" xmlns="http://www.w3.org/2000/svg" xmlns:xlink="http://www.w3.org/1999/xlink" x="0px" y="0px"
	 viewBox="0 0 565.2 280.8" style="enable-background:new 0 0 565.2 280.8;" xml:space="preserve">
<path id="_04." style="fill:#C0D2CC;" d="M109.2,54.4c39.6,0,49.2,51.6,49.2,86.8c0,36-11.2,85.2-49.2,85.2
	c-38.8,0-49.2-48.4-49.2-86C60,106,70.4,54.4,109.2,54.4z M109.2,280.8c78.4,0,109.2-83.2,109.2-140C218.4,91.6,192.4,0,109.2,0
	S0,91.6,0,140.8C0,197.6,30.8,280.8,109.2,280.8L109.2,280.8z M365.6,167.6H310L365.6,84V167.6L365.6,167.6z M463.6,222.8v-55.2
	h-38.4V4h-54L220,222.8h145.6V276h59.6v-53.2H463.6L463.6,222.8z M494.8,245.2c0.1,19.3,15.7,34.9,35,34.8c0.1,0,0.1,0,0.2,0
	c19.2,0,35.2-15.6,35.2-34.8c0-19.4-15.8-35.2-35.2-35.2S494.8,225.8,494.8,245.2L494.8,245.2L494.8,245.2z"/>
</svg>
